<svg width="18" height="16" viewBox="0 0 18 16" fill="none" xmlns="http://www.w3.org/2000/svg">
<path fill-rule="evenodd" clip-rule="evenodd" d="M9.01096 16C13.9229 16 17.9047 12.4183 17.9047 8C17.9047 3.58172 13.9229 0 9.01096 0C4.09907 0 0.117188 3.58172 0.117188 8C0.117188 12.4183 4.09907 16 9.01096 16ZM13.6974 6.01292C14.0727 5.60778 14.0485 4.97508 13.6434 4.59974C13.2383 4.2244 12.6056 4.24856 12.2302 4.6537L8.62864 8.54128C8.29348 8.90305 8.10849 9.09965 7.96275 9.2201L7.95714 9.22471L7.95114 9.22063C7.79505 9.11392 7.59296 8.93496 7.2263 8.60515L5.72698 7.2565C5.31637 6.88716 4.68409 6.92061 4.31474 7.33122C3.9454 7.74183 3.97885 8.37411 4.38946 8.74346L5.88878 10.0921L5.92881 10.1281C6.23972 10.4079 6.54234 10.6802 6.82242 10.8717C7.13845 11.0877 7.54254 11.2852 8.04993 11.2621C8.55732 11.239 8.9418 11.0056 9.23688 10.7617C9.49839 10.5456 9.775 10.2469 10.0592 9.94003L10.0958 9.9005L13.6974 6.01292Z" fill="#33A0FF"/>
</svg>
