<svg width="35" height="35" viewBox="0 0 35 35" fill="none" xmlns="http://www.w3.org/2000/svg">
<path d="M19.5 5L18.791 4.29476L19.5 3.58204L20.209 4.29476L19.5 5ZM20.5 24C20.5 24.5523 20.0523 25 19.5 25C18.9477 25 18.5 24.5523 18.5 24L20.5 24ZM8.29103 14.8503L18.791 4.29476L20.209 5.70524L9.70897 16.2608L8.29103 14.8503ZM20.209 4.29476L30.709 14.8503L29.291 16.2608L18.791 5.70524L20.209 4.29476ZM20.5 5L20.5 24L18.5 24L18.5 5L20.5 5Z" fill="#2B9355"/>
<path d="M5 28L5 30C5 32.2091 6.85482 34 9.14286 34L29.8571 34C32.1452 34 34 32.2091 34 30V28" stroke="#2B9355" stroke-width="2"/>
</svg>
