<svg width="143" height="67" viewBox="0 0 143 67" fill="none" xmlns="http://www.w3.org/2000/svg">
<path d="M25.0671 40.284H33.2751V45H18.9111V19.548H25.0671V40.284ZM51.1985 19.152C53.5985 19.152 55.7705 19.716 57.7145 20.844C59.6825 21.948 61.2305 23.496 62.3585 25.488C63.4865 27.456 64.0505 29.688 64.0505 32.184C64.0505 34.68 63.4745 36.924 62.3225 38.916C61.1945 40.908 59.6465 42.468 57.6785 43.596C55.7345 44.7 53.5745 45.252 51.1985 45.252C48.8225 45.252 46.6505 44.7 44.6825 43.596C42.7385 42.468 41.1905 40.908 40.0385 38.916C38.9105 36.924 38.3465 34.68 38.3465 32.184C38.3465 29.688 38.9105 27.456 40.0385 25.488C41.1905 23.496 42.7385 21.948 44.6825 20.844C46.6505 19.716 48.8225 19.152 51.1985 19.152ZM51.1985 24.876C49.1825 24.876 47.5745 25.536 46.3745 26.856C45.1985 28.152 44.6105 29.928 44.6105 32.184C44.6105 34.416 45.1985 36.192 46.3745 37.512C47.5745 38.832 49.1825 39.492 51.1985 39.492C53.1905 39.492 54.7865 38.832 55.9865 37.512C57.1865 36.192 57.7865 34.416 57.7865 32.184C57.7865 29.952 57.1865 28.176 55.9865 26.856C54.8105 25.536 53.2145 24.876 51.1985 24.876ZM82.4248 19.296C85.6168 19.296 88.2448 20.076 90.3088 21.636C92.3728 23.196 93.6568 25.308 94.1608 27.972H87.6448C87.2128 27.06 86.5528 26.34 85.6648 25.812C84.7768 25.26 83.7088 24.984 82.4608 24.984C80.5168 24.984 78.9568 25.644 77.7808 26.964C76.6048 28.26 76.0168 30.024 76.0168 32.256C76.0168 34.68 76.6288 36.54 77.8528 37.836C79.1008 39.132 80.8648 39.78 83.1448 39.78C84.6088 39.78 85.8928 39.384 86.9968 38.592C88.1008 37.776 88.8808 36.624 89.3368 35.136H81.5608V30.708H94.4848V36.792C94.0048 38.28 93.2368 39.66 92.1808 40.932C91.1248 42.204 89.7688 43.236 88.1128 44.028C86.4808 44.82 84.6088 45.216 82.4968 45.216C79.9288 45.216 77.6848 44.676 75.7648 43.596C73.8448 42.492 72.3568 40.956 71.3008 38.988C70.2688 37.02 69.7528 34.776 69.7528 32.256C69.7528 29.736 70.2688 27.492 71.3008 25.524C72.3568 23.556 73.8328 22.032 75.7288 20.952C77.6488 19.848 79.8808 19.296 82.4248 19.296ZM113.027 19.152C115.427 19.152 117.599 19.716 119.543 20.844C121.511 21.948 123.059 23.496 124.187 25.488C125.315 27.456 125.879 29.688 125.879 32.184C125.879 34.68 125.303 36.924 124.151 38.916C123.023 40.908 121.475 42.468 119.507 43.596C117.563 44.7 115.403 45.252 113.027 45.252C110.651 45.252 108.479 44.7 106.511 43.596C104.567 42.468 103.019 40.908 101.867 38.916C100.739 36.924 100.175 34.68 100.175 32.184C100.175 29.688 100.739 27.456 101.867 25.488C103.019 23.496 104.567 21.948 106.511 20.844C108.479 19.716 110.651 19.152 113.027 19.152ZM113.027 24.876C111.011 24.876 109.403 25.536 108.203 26.856C107.027 28.152 106.439 29.928 106.439 32.184C106.439 34.416 107.027 36.192 108.203 37.512C109.403 38.832 111.011 39.492 113.027 39.492C115.019 39.492 116.615 38.832 117.815 37.512C119.015 36.192 119.615 34.416 119.615 32.184C119.615 29.952 119.015 28.176 117.815 26.856C116.639 25.536 115.043 24.876 113.027 24.876Z" fill="black"/>
<path d="M21.9368 58.528V62H19.5428V52.102H23.4208C24.5968 52.102 25.4928 52.396 26.1088 52.984C26.7248 53.5627 27.0328 54.3467 27.0328 55.336C27.0328 55.952 26.8928 56.5027 26.6128 56.988C26.3421 57.464 25.9361 57.842 25.3948 58.122C24.8535 58.3927 24.1955 58.528 23.4208 58.528H21.9368ZM23.1548 56.61C24.1161 56.61 24.5968 56.1853 24.5968 55.336C24.5968 54.468 24.1161 54.034 23.1548 54.034H21.9368V56.61H23.1548ZM34.2928 62L32.1508 58.262H31.6048V62H29.2108V52.102H33.2988C34.0828 52.102 34.7454 52.2373 35.2868 52.508C35.8281 52.7787 36.2341 53.152 36.5048 53.628C36.7754 54.0947 36.9108 54.6313 36.9108 55.238C36.9108 55.9567 36.7101 56.568 36.3088 57.072C35.9168 57.576 35.3428 57.9213 34.5868 58.108L36.9388 62H34.2928ZM31.6048 56.624H33.0888C33.5648 56.624 33.9148 56.5213 34.1388 56.316C34.3628 56.1013 34.4748 55.7887 34.4748 55.378C34.4748 54.986 34.3581 54.678 34.1248 54.454C33.9008 54.23 33.5554 54.118 33.0888 54.118H31.6048V56.624ZM43.8152 51.948C44.7485 51.948 45.5932 52.1673 46.3492 52.606C47.1145 53.0353 47.7165 53.6373 48.1552 54.412C48.5938 55.1773 48.8132 56.0453 48.8132 57.016C48.8132 57.9867 48.5892 58.8593 48.1412 59.634C47.7025 60.4087 47.1005 61.0153 46.3352 61.454C45.5792 61.8833 44.7392 62.098 43.8152 62.098C42.8912 62.098 42.0465 61.8833 41.2812 61.454C40.5252 61.0153 39.9232 60.4087 39.4752 59.634C39.0365 58.8593 38.8172 57.9867 38.8172 57.016C38.8172 56.0453 39.0365 55.1773 39.4752 54.412C39.9232 53.6373 40.5252 53.0353 41.2812 52.606C42.0465 52.1673 42.8912 51.948 43.8152 51.948ZM43.8152 54.174C43.0312 54.174 42.4058 54.4307 41.9392 54.944C41.4818 55.448 41.2532 56.1387 41.2532 57.016C41.2532 57.884 41.4818 58.5747 41.9392 59.088C42.4058 59.6013 43.0312 59.858 43.8152 59.858C44.5898 59.858 45.2105 59.6013 45.6772 59.088C46.1438 58.5747 46.3772 57.884 46.3772 57.016C46.3772 56.148 46.1438 55.4573 45.6772 54.944C45.2198 54.4307 44.5992 54.174 43.8152 54.174ZM53.552 58.528V62H51.158V52.102H55.036C56.212 52.102 57.108 52.396 57.724 52.984C58.34 53.5627 58.648 54.3467 58.648 55.336C58.648 55.952 58.508 56.5027 58.228 56.988C57.9574 57.464 57.5514 57.842 57.01 58.122C56.4687 58.3927 55.8107 58.528 55.036 58.528H53.552ZM54.77 56.61C55.7314 56.61 56.212 56.1853 56.212 55.336C56.212 54.468 55.7314 54.034 54.77 54.034H53.552V56.61H54.77ZM63.22 52.102V62H60.826V52.102H63.22ZM68.2669 54.006V56.078H71.6129V57.884H68.2669V60.082H72.0329V62H65.8729V52.102H72.0329V54.006H68.2669ZM83.2964 57.03C83.2964 58.0007 83.0864 58.864 82.6664 59.62C82.2557 60.3667 81.6584 60.95 80.8744 61.37C80.0997 61.79 79.1851 62 78.1304 62H74.3924V52.102H78.1304C79.1944 52.102 80.1137 52.3073 80.8884 52.718C81.6631 53.1287 82.2557 53.7073 82.6664 54.454C83.0864 55.2007 83.2964 56.0593 83.2964 57.03ZM77.9204 59.858C78.8537 59.858 79.5771 59.6107 80.0904 59.116C80.6131 58.6213 80.8744 57.926 80.8744 57.03C80.8744 56.134 80.6131 55.4387 80.0904 54.944C79.5771 54.4493 78.8537 54.202 77.9204 54.202H76.7864V59.858H77.9204ZM91.792 60.194H88.082L87.466 62H84.946L88.572 52.172H91.33L94.956 62H92.408L91.792 60.194ZM91.176 58.374L89.944 54.734L88.698 58.374H91.176ZM105.791 57.03C105.791 58.0007 105.581 58.864 105.161 59.62C104.75 60.3667 104.153 60.95 103.369 61.37C102.594 61.79 101.679 62 100.625 62H96.8865V52.102H100.625C101.689 52.102 102.608 52.3073 103.383 52.718C104.157 53.1287 104.75 53.7073 105.161 54.454C105.581 55.2007 105.791 56.0593 105.791 57.03ZM100.415 59.858C101.348 59.858 102.071 59.6107 102.585 59.116C103.107 58.6213 103.369 57.926 103.369 57.03C103.369 56.134 103.107 55.4387 102.585 54.944C102.071 54.4493 101.348 54.202 100.415 54.202H99.2805V59.858H100.415ZM110.548 54.006V56.078H113.894V57.884H110.548V60.082H114.314V62H108.154V52.102H114.314V54.006H110.548ZM123.786 59.214C123.786 59.7367 123.65 60.2173 123.38 60.656C123.118 61.0947 122.726 61.4447 122.204 61.706C121.69 61.9673 121.065 62.098 120.328 62.098C119.217 62.098 118.302 61.8273 117.584 61.286C116.865 60.7447 116.473 59.9887 116.408 59.018H118.956C118.993 59.3913 119.124 59.6853 119.348 59.9C119.581 60.1147 119.875 60.222 120.23 60.222C120.538 60.222 120.78 60.138 120.958 59.97C121.135 59.802 121.224 59.578 121.224 59.298C121.224 59.046 121.14 58.836 120.972 58.668C120.813 58.5 120.612 58.3647 120.37 58.262C120.127 58.15 119.791 58.0193 119.362 57.87C118.736 57.6553 118.223 57.45 117.822 57.254C117.43 57.0487 117.089 56.75 116.8 56.358C116.52 55.9567 116.38 55.4387 116.38 54.804C116.38 54.216 116.529 53.7073 116.828 53.278C117.126 52.8487 117.537 52.522 118.06 52.298C118.592 52.0647 119.198 51.948 119.88 51.948C120.981 51.948 121.854 52.2093 122.498 52.732C123.151 53.2547 123.52 53.9733 123.604 54.888H121.014C120.967 54.5613 120.846 54.3047 120.65 54.118C120.463 53.922 120.206 53.824 119.88 53.824C119.6 53.824 119.371 53.8987 119.194 54.048C119.026 54.1973 118.942 54.4167 118.942 54.706C118.942 54.9393 119.016 55.14 119.166 55.308C119.324 55.4667 119.52 55.5973 119.754 55.7C119.987 55.8027 120.323 55.9333 120.762 56.092C121.396 56.3067 121.914 56.5213 122.316 56.736C122.717 56.9413 123.062 57.2447 123.352 57.646C123.641 58.0473 123.786 58.57 123.786 59.214Z" fill="black"/>
</svg>
