<?xml version="1.0" encoding="utf-8"?>
<!-- Generator: Adobe Illustrator 24.1.2, SVG Export Plug-In . SVG Version: 6.00 Build 0)  -->
<svg version="1.1" id="Capa_1" xmlns="http://www.w3.org/2000/svg" xmlns:xlink="http://www.w3.org/1999/xlink" x="0px" y="0px"
	 viewBox="0 0 239 57" style="enable-background:new 0 0 239 57;" xml:space="preserve">
<style type="text/css">
	.st0{fill:#2A4496;}
	.st1{fill:#2B9355;}
</style>
<path class="st0" d="M4.2,56.5c-1-0.3-2-0.7-2.9-1.3C1,55,0.6,54.7,0.3,54.3C0.1,54.1,0,53.8,0,53.5c0-0.3,0.1-0.5,0.3-0.7
	c0.1-0.1,0.2-0.2,0.3-0.2c0.1,0,0.2-0.1,0.3-0.1c0.5,0.1,0.9,0.3,1.2,0.6c0.7,0.5,1.5,0.9,2.4,1.2c1,0.3,2,0.5,3.1,0.5
	c1.3,0.1,2.6-0.2,3.7-0.9c0.4-0.3,0.8-0.6,1-1c0.2-0.4,0.3-0.9,0.3-1.4c0-0.6-0.1-1.1-0.5-1.6c-0.4-0.5-1-0.9-1.6-1.1
	c-1-0.4-2.1-0.7-3.2-0.9c-2.4-0.5-4.1-1.2-5.1-2.1c-0.5-0.4-0.9-0.9-1.1-1.5c-0.3-0.6-0.4-1.2-0.4-1.9c0-0.8,0.2-1.6,0.5-2.3
	c0.3-0.7,0.9-1.3,1.5-1.8c1.5-1.1,3.3-1.7,5.2-1.6c1,0,2,0.1,3,0.4c0.9,0.2,1.7,0.6,2.5,1.2c0.9,0.6,1.4,1.3,1.4,1.9
	c0,0.3-0.1,0.5-0.3,0.7c-0.1,0.1-0.2,0.2-0.3,0.2c-0.1,0.1-0.2,0.1-0.3,0.1c-0.5-0.1-0.9-0.3-1.2-0.6c-0.7-0.5-1.4-0.9-2.1-1.2
	c-0.9-0.3-1.8-0.5-2.7-0.5c-1.2-0.1-2.3,0.3-3.3,0.9c-0.4,0.3-0.7,0.7-0.9,1.1s-0.3,0.9-0.3,1.4c0,0.5,0.1,1.1,0.4,1.5
	C4,44.4,4.5,44.8,5.1,45C6,45.4,7,45.7,8,45.9c1.5,0.3,2.9,0.8,4.2,1.4c0.9,0.4,1.6,1,2.1,1.7c0.6,1.1,0.8,2.3,0.5,3.5
	c-0.3,1.2-1,2.3-1.9,3c-1.4,1-3.2,1.5-5.5,1.5C6.4,57,5.3,56.8,4.2,56.5z"/>
<path class="st0" d="M23.4,55.7c-1.4-0.8-2.4-2.1-3.1-3.5c-0.7-1.7-1.1-3.5-1.1-5.3s0.4-3.6,1.1-5.3c0.7-1.4,1.8-2.7,3.1-3.5
	c1.4-0.8,3-1.2,4.7-1.2c1.6,0,3.3,0.4,4.7,1.2c1.4,0.8,2.5,2.1,3.1,3.5c0.7,1.7,1.1,3.5,1.1,5.3s-0.4,3.6-1.1,5.3
	c-0.7,1.5-1.8,2.7-3.1,3.5c-1.4,0.8-3,1.2-4.7,1.2C26.4,57,24.8,56.5,23.4,55.7z M32.8,52.8c1.1-1.4,1.7-3.3,1.7-5.9
	c0-2.5-0.6-4.4-1.7-5.8c-0.6-0.7-1.3-1.2-2.1-1.5S29,39,28.1,39c-0.9,0-1.8,0.2-2.6,0.5s-1.5,0.9-2.1,1.5c-1.1,1.4-1.7,3.3-1.7,5.8
	c0,2.6,0.5,4.5,1.6,5.9c1.1,1.4,2.7,2,4.7,2C30.1,54.8,31.7,54.1,32.8,52.8z"/>
<path class="st0" d="M42.5,56.6c-0.1-0.1-0.2-0.3-0.3-0.4c-0.1-0.2-0.1-0.3-0.1-0.5V29.6c0-0.2,0-0.3,0.1-0.5
	c0.1-0.2,0.2-0.3,0.3-0.4c0.2-0.2,0.6-0.3,0.9-0.3c0.3,0,0.6,0.1,0.9,0.3c0.1,0.1,0.2,0.3,0.3,0.4c0.1,0.2,0.1,0.3,0.1,0.5v26.1
	c0,0.2,0,0.3-0.1,0.5c-0.1,0.2-0.1,0.3-0.3,0.4c-0.2,0.2-0.5,0.3-0.9,0.3C43,56.9,42.7,56.8,42.5,56.6z"/>
<path class="st0" d="M54,55.7c-1.4-0.8-2.5-2.1-3.1-3.5c-0.7-1.7-1.1-3.5-1.1-5.3c0-1.8,0.4-3.6,1.1-5.3c0.7-1.4,1.8-2.7,3.1-3.5
	c1.4-0.8,3-1.2,4.7-1.2c1.6,0,3.3,0.4,4.7,1.2c1.4,0.8,2.5,2.1,3.1,3.5c0.7,1.7,1.1,3.5,1.1,5.3c0,1.8-0.4,3.6-1.1,5.3
	c-0.7,1.5-1.8,2.7-3.1,3.5c-1.4,0.8-3,1.2-4.7,1.2C57.1,57,55.4,56.5,54,55.7L54,55.7z M63.4,52.8c1.1-1.4,1.7-3.3,1.7-5.9
	c0-2.5-0.6-4.4-1.7-5.8c-0.6-0.7-1.3-1.2-2.1-1.5c-0.8-0.4-1.7-0.5-2.6-0.5c-0.9,0-1.8,0.2-2.6,0.5c-0.8,0.4-1.5,0.9-2.1,1.5
	c-1.1,1.4-1.7,3.3-1.7,5.8c0,2.6,0.5,4.5,1.6,5.9c1.1,1.4,2.7,2,4.7,2C60.7,54.8,62.3,54.1,63.4,52.8z"/>
<path class="st1" d="M75.7,55.8c-1.5-0.8-2.7-2-3.4-3.5c-0.8-1.7-1.2-3.5-1.2-5.3c0-1.8,0.4-3.7,1.3-5.3c0.8-1.5,2-2.8,3.5-3.6
	c1.6-0.9,3.4-1.3,5.2-1.3c1.1,0,2.1,0.1,3.1,0.4c1,0.3,1.9,0.7,2.8,1.2c0.4,0.2,0.7,0.5,0.9,0.9c0.2,0.4,0.3,0.8,0.4,1.2
	c0,0.5-0.1,1-0.4,1.4c-0.1,0.2-0.3,0.3-0.5,0.4c-0.2,0.1-0.4,0.1-0.6,0.1c-0.3,0-0.6-0.1-0.9-0.2c-0.3-0.1-0.7-0.3-1-0.5
	c-0.5-0.3-1.1-0.6-1.7-0.8c-0.6-0.2-1.2-0.3-1.8-0.3c-0.7,0-1.4,0.1-2.1,0.4s-1.3,0.7-1.7,1.3c-0.9,1.1-1.3,2.6-1.3,4.6
	c0,2,0.4,3.5,1.3,4.6c0.5,0.5,1.1,1,1.7,1.3s1.4,0.4,2.1,0.4c0.6,0,1.2-0.1,1.8-0.3c0.6-0.2,1.2-0.5,1.7-0.8c0.3-0.2,0.7-0.4,1-0.5
	c0.3-0.1,0.6-0.2,0.9-0.2c0.2,0,0.4,0.1,0.6,0.1c0.2,0.1,0.3,0.2,0.5,0.4c0.3,0.4,0.5,0.9,0.4,1.4c0,0.4-0.1,0.8-0.3,1.2
	c-0.2,0.4-0.6,0.7-1,0.9c-0.9,0.6-1.9,1-2.9,1.3C83.1,56.8,82,57,80.9,57C79.1,57,77.3,56.6,75.7,55.8z"/>
<path class="st1" d="M95.4,55.8c-1.5-0.8-2.7-2-3.5-3.5c-0.8-1.7-1.2-3.5-1.2-5.4c0-1.9,0.4-3.7,1.2-5.4c0.8-1.5,2-2.7,3.5-3.5
	c1.6-0.8,3.4-1.2,5.3-1.2c1.8,0,3.6,0.4,5.3,1.2c1.5,0.8,2.7,2,3.5,3.5c0.8,1.7,1.2,3.5,1.2,5.4c0,1.9-0.4,3.7-1.2,5.4
	c-0.8,1.5-2,2.7-3.5,3.5c-1.6,0.8-3.4,1.2-5.3,1.2C98.8,57,97,56.6,95.4,55.8z M104.3,51.5c0.9-1.1,1.3-2.6,1.3-4.7
	c0-2.1-0.4-3.6-1.3-4.7c-0.4-0.5-1-1-1.6-1.3c-0.6-0.3-1.3-0.4-2-0.4c-0.7,0-1.4,0.1-2,0.4c-0.6,0.3-1.2,0.7-1.7,1.2
	c-0.9,1.1-1.3,2.6-1.3,4.7c0,2.1,0.4,3.6,1.3,4.7c0.5,0.5,1,0.9,1.7,1.2c0.6,0.3,1.3,0.4,2,0.4c0.7,0,1.4-0.1,2-0.4
	C103.2,52.4,103.8,52,104.3,51.5z"/>
<path class="st1" d="M131.9,37.4c0.2,0.2,0.4,0.5,0.5,0.8c0.1,0.3,0.2,0.6,0.2,0.9v15.5c0,0.3,0,0.6-0.2,0.9
	c-0.1,0.3-0.3,0.5-0.5,0.8c-0.5,0.4-1.2,0.7-1.8,0.6c-0.6,0-1.2-0.2-1.7-0.6c-0.2-0.2-0.4-0.5-0.5-0.7c-0.1-0.3-0.2-0.6-0.1-0.9v-1
	c-0.6,1-1.4,1.9-2.5,2.5c-1.1,0.6-2.3,0.9-3.5,0.9c-4.8,0-7.2-2.7-7.2-8.1v-9.8c0-0.3,0-0.6,0.2-0.9c0.1-0.3,0.3-0.6,0.5-0.8
	c0.5-0.4,1.1-0.7,1.8-0.6c0.7,0,1.3,0.2,1.8,0.6c0.2,0.2,0.4,0.5,0.5,0.8c0.1,0.3,0.2,0.6,0.2,0.9V49c0,1.4,0.3,2.4,0.8,3.1
	c0.6,0.7,1.4,1,2.6,1c0.6,0,1.2-0.1,1.8-0.3c0.6-0.2,1.1-0.6,1.5-1.1c0.9-1,1.3-2.3,1.3-3.6v-8.9c0-0.3,0-0.6,0.2-0.9
	c0.1-0.3,0.3-0.6,0.5-0.8c0.5-0.4,1.1-0.7,1.8-0.6C130.8,36.7,131.4,37,131.9,37.4z"/>
<path class="st1" d="M154.4,38.7c1.1,1.3,1.7,3.3,1.7,6v9.8c0,0.3,0,0.6-0.1,0.9c-0.1,0.3-0.3,0.6-0.5,0.8c-0.2,0.2-0.5,0.4-0.8,0.5
	c-0.3,0.1-0.6,0.2-1,0.1c-0.7,0-1.3-0.2-1.8-0.6c-0.2-0.2-0.4-0.5-0.5-0.8c-0.1-0.3-0.2-0.6-0.2-0.9V45c0-1.5-0.3-2.6-0.9-3.3
	c-0.6-0.7-1.5-1-2.7-1c-0.6,0-1.3,0.1-1.9,0.3c-0.6,0.2-1.1,0.6-1.6,1c-0.9,1-1.4,2.3-1.3,3.6v8.9c0,0.3,0,0.6-0.2,0.9
	c-0.1,0.3-0.3,0.6-0.5,0.8c-0.5,0.4-1.2,0.7-1.8,0.6c-0.3,0-0.7,0-1-0.1s-0.6-0.3-0.8-0.5c-0.2-0.2-0.4-0.5-0.5-0.8
	c-0.1-0.3-0.2-0.6-0.1-0.9V39.1c0-0.3,0-0.6,0.2-0.9c0.1-0.3,0.3-0.6,0.5-0.8c0.5-0.4,1.2-0.7,1.8-0.6c0.6,0,1.2,0.2,1.7,0.6
	c0.2,0.2,0.4,0.5,0.5,0.7s0.2,0.6,0.2,0.9v1.1c0.6-1.1,1.6-1.9,2.7-2.5c1.2-0.6,2.5-0.9,3.8-0.9C151.5,36.7,153.3,37.4,154.4,38.7z"
	/>
<path class="st1" d="M173.4,55c0,0.3-0.1,0.6-0.2,0.8c-0.1,0.3-0.3,0.5-0.6,0.6c-0.7,0.4-1.5,0.5-2.2,0.4l-1.1-0.1
	c-4.5-0.3-6.7-2.7-6.7-7.2v-8.7h-2c-0.6,0-1.2-0.1-1.7-0.5c-0.4-0.4-0.6-0.9-0.6-1.4c0-0.5,0.2-1,0.6-1.4c0.5-0.3,1.1-0.5,1.7-0.5h2
	v-3.7c0-0.3,0-0.6,0.2-0.9c0.1-0.3,0.3-0.6,0.5-0.8c0.5-0.4,1.2-0.7,1.8-0.6c0.7,0,1.3,0.2,1.8,0.6c0.2,0.2,0.4,0.5,0.5,0.8
	c0.1,0.3,0.2,0.6,0.2,0.9v3.7h3.4c0.6,0,1.2,0.1,1.7,0.5c0.4,0.4,0.6,0.9,0.6,1.4c0,0.5-0.2,1-0.6,1.4c-0.5,0.3-1.1,0.5-1.7,0.5
	h-3.4V50c0,2,0.9,3,2.7,3.2l1.1,0.1C172.7,53.3,173.4,53.9,173.4,55z"/>
<path class="st1" d="M188.5,37.2c0.2,0.2,0.4,0.4,0.5,0.7c0.1,0.3,0.1,0.6,0.1,0.8c0,0.3,0,0.6-0.1,0.8c-0.1,0.3-0.2,0.5-0.4,0.7
	c-0.5,0.4-1.2,0.7-1.9,0.7l-1.2,0.1c-1.6,0.2-2.7,0.7-3.5,1.6c-0.8,1-1.1,2.2-1.1,3.4v8.4c0,0.3,0,0.7-0.2,1
	c-0.1,0.3-0.3,0.6-0.6,0.8c-0.5,0.4-1.1,0.6-1.8,0.6c-0.6,0-1.3-0.2-1.8-0.6c-0.2-0.2-0.4-0.5-0.5-0.8c-0.1-0.3-0.2-0.6-0.2-1V39.1
	c0-0.3,0-0.6,0.2-0.9c0.1-0.3,0.3-0.6,0.5-0.8c0.5-0.4,1.1-0.6,1.7-0.6c0.6,0,1.2,0.2,1.7,0.6c0.2,0.2,0.4,0.5,0.5,0.8
	c0.1,0.3,0.2,0.6,0.1,0.9v1.6c0.5-1.1,1.2-2.1,2.3-2.7c1-0.6,2.1-1,3.3-1.1l0.6,0c0.3,0,0.6,0,0.9,0.1C188,36.9,188.3,37,188.5,37.2
	z"/>
<path class="st1" d="M191.6,32.5c-0.3-0.2-0.5-0.5-0.6-0.9s-0.2-0.7-0.2-1.1c0-0.4,0-0.7,0.2-1c0.1-0.3,0.3-0.6,0.6-0.9
	c0.6-0.5,1.4-0.7,2.1-0.7s1.5,0.3,2.1,0.7c0.3,0.2,0.5,0.5,0.6,0.9c0.1,0.3,0.2,0.7,0.2,1.1c0,0.4,0,0.7-0.2,1.1
	c-0.1,0.3-0.3,0.6-0.6,0.9c-0.6,0.5-1.4,0.7-2.2,0.7C193,33.2,192.2,33,191.6,32.5z M192,56.3c-0.2-0.2-0.4-0.5-0.6-0.8
	c-0.1-0.3-0.2-0.6-0.2-1V39.1c0-0.3,0-0.7,0.2-1c0.1-0.3,0.3-0.6,0.6-0.8c0.5-0.4,1.1-0.6,1.8-0.6c0.7,0,1.3,0.2,1.8,0.6
	c0.2,0.2,0.4,0.5,0.6,0.8c0.1,0.3,0.2,0.6,0.2,1v15.4c0,0.3,0,0.7-0.2,1c-0.1,0.3-0.3,0.6-0.6,0.8c-0.5,0.4-1.1,0.6-1.8,0.6
	C193.1,56.9,192.5,56.7,192,56.3z"/>
<path class="st1" d="M218,51.9c0.3,0.4,0.4,0.9,0.4,1.4c0,0.8-0.5,1.5-1.5,2.1c-1,0.5-2,0.9-3.1,1.2c-1.1,0.3-2.2,0.4-3.3,0.5
	c-3.1,0-5.6-0.9-7.5-2.7s-2.8-4.3-2.8-7.4c0-1.8,0.4-3.7,1.2-5.3c0.8-1.5,1.9-2.8,3.4-3.6c1.5-0.9,3.2-1.3,4.9-1.3
	c1.6,0,3.2,0.4,4.6,1.2c1.3,0.8,2.4,1.9,3,3.3c0.8,1.6,1.1,3.3,1.1,5c0,1.1-0.5,1.7-1.5,1.7h-11.8c0.2,1.8,0.7,3.2,1.5,4
	c0.9,0.9,2.1,1.3,3.8,1.3c0.8,0,1.5-0.1,2.3-0.3c0.8-0.3,1.5-0.5,2.2-0.9c0.5-0.3,1.1-0.6,1.8-0.6c0.2,0,0.4,0,0.6,0.1
	C217.7,51.5,217.9,51.7,218,51.9z M206.7,41.5c-0.9,1-1.4,2.3-1.5,3.7h9c-0.1-1.6-0.5-2.8-1.2-3.7c-0.4-0.4-0.9-0.8-1.4-1
	c-0.5-0.2-1.1-0.3-1.7-0.3c-0.6,0-1.2,0.1-1.8,0.3C207.7,40.7,207.1,41,206.7,41.5z"/>
<path class="st1" d="M222.7,55.3c-0.4-0.2-0.7-0.5-0.9-0.9c-0.2-0.4-0.3-0.8-0.3-1.3c0-0.5,0.1-0.9,0.4-1.3c0.1-0.2,0.3-0.3,0.5-0.4
	c0.2-0.1,0.4-0.1,0.6-0.1c0.7,0.1,1.3,0.3,1.9,0.6c0.8,0.4,1.5,0.7,2.3,0.9c0.9,0.2,1.8,0.3,2.7,0.3c0.9,0,1.8-0.1,2.6-0.6
	c0.3-0.1,0.5-0.4,0.7-0.6c0.2-0.3,0.3-0.6,0.2-0.9c0-0.4-0.1-0.8-0.4-1.1c-0.4-0.3-0.9-0.6-1.4-0.7c-1-0.3-2-0.6-3-0.8
	c-2.4-0.5-4.1-1.2-5.1-2c-0.5-0.4-0.9-1-1.2-1.6c-0.3-0.6-0.4-1.3-0.4-2c0-1.1,0.4-2.3,1-3.2c0.7-1,1.7-1.7,2.9-2.2
	c1.3-0.5,2.7-0.8,4.1-0.8c1.1,0,2.2,0.1,3.2,0.4c1,0.3,1.9,0.7,2.8,1.2c0.4,0.2,0.7,0.5,0.9,0.9c0.2,0.4,0.3,0.8,0.3,1.2
	c0,0.5-0.1,1-0.4,1.3c-0.1,0.2-0.3,0.3-0.5,0.4c-0.2,0.1-0.4,0.1-0.6,0.1c-0.3,0-0.6-0.1-0.9-0.2c-0.4-0.2-0.7-0.3-1-0.5
	c-0.6-0.3-1.3-0.6-2-0.9c-0.7-0.2-1.4-0.3-2.1-0.3c-0.8,0-1.6,0.2-2.3,0.6c-0.3,0.2-0.5,0.4-0.6,0.7c-0.2,0.3-0.2,0.6-0.2,0.9
	c0,0.3,0.1,0.6,0.2,0.9c0.2,0.3,0.4,0.5,0.7,0.6c1.1,0.5,2.2,0.8,3.4,1c1.4,0.3,2.9,0.7,4.2,1.3c0.9,0.4,1.6,1,2.2,1.8
	c0.5,0.8,0.7,1.8,0.7,2.8c0,0.9-0.2,1.7-0.6,2.5s-1,1.4-1.7,1.9c-1.5,1.1-3.5,1.6-6,1.6C226.8,57,224.5,56.4,222.7,55.3z"/>
<path class="st1" d="M142.2,5.9c-3.4,0-6.6,1-9.4,2.9c-2.8,1.9-4.9,4.5-6.2,7.6c-2.9-1.1-6.2-1.1-9,0.2c-2.9,1.3-5.1,3.6-6.3,6.5
	c-1.2-0.2-2.4-0.2-3.5,0.1c-1.2,0.3-2.2,0.9-3.1,1.6c-0.9,0.8-1.7,1.7-2.2,2.8s-0.8,2.3-0.8,3.5h17.6l-2.1-2.1
	c-0.1-0.1-0.2-0.2-0.3-0.4c-0.1-0.2-0.1-0.3-0.1-0.5c0-0.3,0.2-0.6,0.4-0.9c0.2-0.2,0.5-0.4,0.8-0.4c0.2,0,0.3,0,0.5,0.1
	c0.2,0.1,0.3,0.2,0.4,0.3l2.2,2.2v-5.3c0-0.2,0-0.3,0.1-0.5c0.1-0.2,0.2-0.3,0.3-0.4c0.2-0.2,0.6-0.3,0.9-0.3c0.2,0,0.3,0,0.5,0.1
	s0.3,0.2,0.4,0.3c0.1,0.1,0.2,0.3,0.3,0.4c0.1,0.2,0.1,0.3,0.1,0.5v6.8h17.5v-2.3c-0.1-0.1-0.1-0.1-0.2-0.2l-3.7-3.7
	c-0.1-0.1-0.2-0.2-0.3-0.4c-0.1-0.2-0.1-0.3-0.1-0.5c0-0.2,0-0.3,0.1-0.5c0.1-0.1,0.2-0.3,0.3-0.4c0.1-0.1,0.2-0.2,0.4-0.3
	c0.1-0.1,0.3-0.1,0.5-0.1c0.2,0,0.3,0,0.5,0.1c0.1,0.1,0.3,0.2,0.4,0.3l2.2,2.2v-7.3c0-0.2,0-0.3,0.1-0.5c0.1-0.2,0.2-0.3,0.3-0.4
	c0.2-0.2,0.6-0.3,0.9-0.3c0.2,0,0.3,0,0.5,0.1c0.2,0.1,0.3,0.2,0.4,0.3c0.1,0.1,0.2,0.3,0.3,0.4c0.1,0.2,0.1,0.3,0.1,0.5v10.7
	l4.7-4.7c0.1-0.1,0.3-0.2,0.4-0.3c0.2-0.1,0.3-0.1,0.5-0.1c0.3,0,0.6,0.2,0.9,0.4c0.2,0.2,0.4,0.5,0.4,0.8c0,0.2,0,0.3-0.1,0.5
	c-0.1,0.2-0.2,0.3-0.3,0.4l-5.4,5.3h12c1.5-2.5,2.3-5.4,2.3-8.4s-0.7-5.9-2.2-8.4c-1.5-2.6-3.6-4.7-6.1-6.2
	C148,6.7,145.1,5.9,142.2,5.9z"/>
<path class="st0" d="M103.6,26.9L83.3,6.6c-0.2-0.2-0.5-0.4-0.8-0.5c-0.3-0.1-0.6-0.2-0.9-0.2h-0.1c-0.3,0-0.6,0.1-0.9,0.2
	c-0.3,0.1-0.5,0.3-0.8,0.5L59.5,26.9c-0.2,0.2-0.4,0.5-0.6,0.8c-0.1,0.3-0.2,0.6-0.2,1c0.1,0.7,0.4,1.3,0.8,1.7
	c0.4,0.5,1,0.8,1.7,0.8c0.3,0,0.7-0.1,1-0.2c0.3-0.1,0.6-0.3,0.8-0.6l18.5-18.5l18.5,18.5c0.2,0.2,0.5,0.4,0.8,0.6
	c0.3,0.1,0.6,0.2,1,0.2c0.6,0,1.3-0.3,1.7-0.8c0.5-0.4,0.8-1.1,0.8-1.7c0-0.3,0-0.7-0.2-1C104,27.3,103.8,27.1,103.6,26.9z"/>
<path class="st0" d="M86.1,23.6L86.1,23.6c-0.1-0.1-0.1-0.2-0.2-0.2l-2.7-2.6c-0.2-0.2-0.5-0.4-0.8-0.5c-0.3-0.1-0.6-0.2-0.9-0.2
	h-0.1c-0.3,0-0.6,0.1-0.9,0.2c-0.3,0.1-0.5,0.3-0.8,0.5L79,21.6l-1.6,1.6c-0.1,0-0.1,0.1-0.2,0.1c-0.2,0.2-0.4,0.5-0.5,0.8
	c-0.1,0.3-0.2,0.6-0.1,1v6h10v-6C86.6,24.5,86.4,24,86.1,23.6z"/>
</svg>
