<svg width="20" height="21" viewBox="0 0 20 21" fill="none" xmlns="http://www.w3.org/2000/svg">
<path fill-rule="evenodd" clip-rule="evenodd" d="M19.8524 16.9181C19.369 15.6297 18.6278 14.4538 17.6742 13.4622C16.7206 12.4707 15.5747 11.6845 14.3068 11.1518C14.9963 10.5851 15.5531 9.87385 15.9379 9.06822C16.3227 8.26259 16.5261 7.38224 16.5338 6.48934C16.5089 4.92449 15.9054 3.42441 14.8398 2.27887C13.7743 1.13333 12.3224 0.423605 10.7646 0.286838C10.2544 0.22356 9.73845 0.22356 9.2283 0.286838C7.67136 0.424773 6.22063 1.13501 5.15615 2.28043C4.09166 3.42586 3.48885 4.92527 3.46406 6.48934C3.47147 7.38229 3.67478 8.26271 4.0596 9.06837C4.44442 9.87404 5.00138 10.5853 5.69108 11.1518C4.42289 11.6843 3.27673 12.4704 2.32291 13.4619C1.36909 14.4535 0.627688 15.6296 0.14418 16.9181C0.00779153 17.2948 -0.032697 17.6996 0.0263985 18.0959C0.085494 18.4922 0.242307 18.8676 0.482659 19.1881C0.732073 19.5172 1.05477 19.7837 1.4251 19.9661C1.79544 20.1486 2.20321 20.2422 2.61599 20.2393H17.3906C17.803 20.2421 18.2104 20.1485 18.5803 19.966C18.9502 19.7835 19.2725 19.5171 19.5215 19.1881C19.7612 18.8672 19.917 18.4915 19.9748 18.0951C20.0326 17.6987 19.9905 17.2941 19.8524 16.9181ZM6.07827 6.48934C6.09554 5.54154 6.46567 4.63431 7.11624 3.94532C7.7668 3.25632 8.65092 2.83517 9.59548 2.76433C9.86466 2.73099 10.1369 2.73099 10.4061 2.76433C11.1165 2.87333 11.7808 3.18391 12.3202 3.65922C12.8596 4.13452 13.2515 4.75464 13.4495 5.44606C13.6474 6.13748 13.6431 6.8712 13.4371 7.56027C13.2311 8.24934 12.832 8.86485 12.2872 9.33384C11.7423 9.80282 11.0745 10.1056 10.3629 10.2063C9.65125 10.3071 8.92568 10.2014 8.27221 9.90207C7.61874 9.6027 7.06477 9.1221 6.67591 8.51723C6.28705 7.91235 6.07965 7.20858 6.07827 6.48934ZM2.61348 17.7393C3.20541 16.2632 4.22535 14.9981 5.54193 14.1072C6.85851 13.2162 8.41148 12.7401 10.0008 12.7401C11.5902 12.7401 13.1431 13.2162 14.4597 14.1072C15.7763 14.9981 16.7962 16.2632 17.3881 17.7393H2.61599H2.61348Z" fill="#22262A"/>
</svg>
