<svg width="20" height="21" viewBox="0 0 20 21" fill="none" xmlns="http://www.w3.org/2000/svg">
<path fill-rule="evenodd" clip-rule="evenodd" d="M19.4866 18.4403L13.6021 12.5255C14.6579 11.0263 15.1123 9.18513 14.8753 7.36661C14.6384 5.54809 13.7274 3.88497 12.3228 2.70674C10.9182 1.52851 9.12258 0.921131 7.29159 1.00497C5.4606 1.08881 3.7279 1.85769 2.43675 3.15935C1.1456 4.46102 0.390211 6.20046 0.32027 8.03303C0.25033 9.8656 0.870938 11.6576 2.05911 13.054C3.24729 14.4504 4.91636 15.3493 6.73562 15.5726C8.55489 15.7959 10.3916 15.3273 11.8819 14.2597L17.7664 20.1755C17.8796 20.2912 18.0147 20.3832 18.1638 20.4462C18.3129 20.5093 18.473 20.542 18.6348 20.5425C18.7967 20.5431 18.957 20.5114 19.1065 20.4494C19.256 20.3874 19.3917 20.2963 19.5057 20.1814C19.6197 20.0665 19.7098 19.93 19.7706 19.7799C19.8314 19.6299 19.8619 19.4692 19.8601 19.3073C19.8583 19.1454 19.8243 18.9854 19.7602 18.8368C19.6961 18.6881 19.6031 18.5536 19.4866 18.4412V18.4403ZM7.6495 13.1742C6.67843 13.1795 5.72763 12.8963 4.91761 12.3604C4.10759 11.8245 3.47481 11.0601 3.09948 10.164C2.72415 9.2679 2.62317 8.28044 2.80932 7.32685C2.99548 6.37325 3.46041 5.49645 4.14516 4.80752C4.82992 4.11858 5.70368 3.64855 6.65571 3.45702C7.60774 3.26548 8.59517 3.36109 9.49285 3.73166C10.3905 4.10224 11.158 4.73111 11.6981 5.5386C12.2382 6.34609 12.5265 7.29579 12.5265 8.2674C12.5265 9.56408 12.0136 10.8081 11.0997 11.7275C10.1859 12.6469 8.94545 13.167 7.6495 13.1742Z" fill="white"/>
</svg>
