<svg width="283" height="35" viewBox="0 0 283 35" fill="none" xmlns="http://www.w3.org/2000/svg">
<ellipse cx="233.612" cy="14" rx="13.6155" ry="14" fill="#B5B5B5"/>
<circle cx="233.996" cy="14" r="9.5" stroke="white" stroke-linecap="round"/>
<path d="M237.996 10L229.996 13" stroke="white" stroke-linecap="round"/>
<path d="M229.996 10L237.996 13" stroke="white" stroke-linecap="round"/>
<path d="M229.996 16.5556C229.996 16.504 229.996 16.4782 229.998 16.4564C230.019 16.2147 230.211 16.0231 230.453 16.0019C230.474 16 230.5 16 230.552 16H237.441C237.492 16 237.518 16 237.54 16.0019C237.781 16.0231 237.973 16.2147 237.994 16.4564C237.996 16.4782 237.996 16.504 237.996 16.5556V17C237.996 19.2091 236.205 21 233.996 21C231.787 21 229.996 19.2091 229.996 17V16.5556Z" fill="white"/>
<ellipse cx="49.6126" cy="14" rx="13.6155" ry="14" fill="#2A4496"/>
<path d="M44.1971 20V17.8C45.3304 17.0933 46.2971 16.4333 47.0971 15.82C47.8971 15.2067 48.5437 14.6267 49.0371 14.08C49.5437 13.5333 49.9171 13.0133 50.1571 12.52C50.3971 12.0267 50.5171 11.5467 50.5171 11.08C50.5171 10.5733 50.3637 10.1533 50.0571 9.82C49.7637 9.47333 49.3237 9.3 48.7371 9.3C48.1104 9.3 47.6237 9.53333 47.2771 10C46.9304 10.4533 46.7437 11.12 46.7171 12L43.7771 11.1C43.8037 10.1133 44.0371 9.28667 44.4771 8.62C44.9304 7.95333 45.5437 7.45333 46.3171 7.12C47.0904 6.77333 47.9704 6.6 48.9571 6.6C49.8237 6.6 50.5704 6.72667 51.1971 6.98C51.8371 7.22 52.3571 7.54667 52.7571 7.96C53.1571 8.36 53.4504 8.81333 53.6371 9.32C53.8371 9.81333 53.9371 10.32 53.9371 10.84C53.9371 11.6933 53.7171 12.4933 53.2771 13.24C52.8371 13.9733 52.1971 14.6867 51.3571 15.38C50.5304 16.06 49.5237 16.7467 48.3371 17.44V17.46C48.5637 17.4467 48.8304 17.4333 49.1371 17.42C49.4437 17.4067 49.7637 17.4 50.0971 17.4C50.4304 17.3867 50.7304 17.38 50.9971 17.38H54.0971V20H44.1971Z" fill="white"/>
<path d="M207 14.6704L193 14.6704" stroke="#B5B5B5" stroke-width="2" stroke-linecap="round" stroke-linejoin="round"/>
<path d="M211.816 14.4911L208.358 11.1281C207.851 10.6349 207 10.9942 207 11.7016L207 17.639C207 18.3464 207.851 18.7057 208.358 18.2125L211.816 14.8495C211.917 14.7514 211.917 14.5892 211.816 14.4911Z" fill="#B5B5B5"/>
<path d="M88.7761 6.8V20H85.7361V13.94L85.8361 9.88H85.7961L82.5361 20H79.7561L76.4961 9.88H76.4561L76.5561 13.94V20H73.4961V6.8H78.3961L80.4761 13.52L81.2161 16.32H81.2561L82.0161 13.54L84.0761 6.8H88.7761ZM94.3807 20.2C93.7007 20.2 93.1007 20.0867 92.5807 19.86C92.074 19.62 91.674 19.24 91.3807 18.72C91.0873 18.2 90.9407 17.52 90.9407 16.68V10H94.3407V15.88C94.3407 16.52 94.4673 16.9667 94.7207 17.22C94.974 17.4733 95.334 17.6 95.8007 17.6C96.0407 17.6 96.2673 17.56 96.4807 17.48C96.694 17.3867 96.8807 17.2533 97.0407 17.08C97.2007 16.8933 97.3207 16.66 97.4007 16.38C97.494 16.0867 97.5407 15.7467 97.5407 15.36V10H100.941V20H97.9007L97.8007 18.12C97.4807 18.8267 97.034 19.3533 96.4607 19.7C95.8873 20.0333 95.194 20.2 94.3807 20.2ZM106.343 5.76V16.6C106.343 17.04 106.417 17.3533 106.563 17.54C106.71 17.7267 106.957 17.82 107.303 17.82C107.503 17.82 107.67 17.8067 107.803 17.78C107.937 17.7533 108.097 17.7133 108.283 17.66L108.063 19.7C107.823 19.8467 107.51 19.9667 107.123 20.06C106.737 20.1533 106.357 20.2 105.983 20.2C104.917 20.2 104.143 19.9533 103.663 19.46C103.183 18.9667 102.943 18.16 102.943 17.04V5.76H106.343ZM112.974 6.82V16.44C112.974 16.92 113.088 17.2667 113.314 17.48C113.554 17.68 113.881 17.78 114.294 17.78C114.614 17.78 114.888 17.7467 115.114 17.68C115.354 17.6 115.568 17.4867 115.754 17.34L116.114 19.44C115.781 19.68 115.361 19.8667 114.854 20C114.348 20.1333 113.828 20.2 113.294 20.2C112.534 20.2 111.874 20.0933 111.314 19.88C110.768 19.6667 110.341 19.3267 110.034 18.86C109.741 18.3933 109.588 17.7733 109.574 17V7.76L112.974 6.82ZM115.954 10V12.42H107.854V10H115.954ZM118.825 8.84C118.132 8.84 117.625 8.71333 117.305 8.46C116.998 8.19333 116.845 7.78 116.845 7.22C116.845 6.64667 116.998 6.23333 117.305 5.98C117.625 5.71333 118.132 5.58 118.825 5.58C119.505 5.58 120.005 5.71333 120.325 5.98C120.645 6.23333 120.805 6.64667 120.805 7.22C120.805 7.78 120.645 8.19333 120.325 8.46C120.005 8.71333 119.505 8.84 118.825 8.84ZM120.525 10V20H117.125V10H120.525ZM122.545 20V10H125.585L125.685 11.94C126.005 11.2333 126.452 10.7 127.025 10.34C127.612 9.98 128.285 9.8 129.045 9.8C129.792 9.8 130.439 9.96667 130.985 10.3C131.532 10.6333 131.939 11.1267 132.205 11.78C132.419 11.34 132.692 10.9733 133.025 10.68C133.372 10.3867 133.765 10.1667 134.205 10.02C134.645 9.87333 135.099 9.8 135.565 9.8C136.232 9.8 136.819 9.93333 137.325 10.2C137.832 10.4533 138.232 10.8467 138.525 11.38C138.832 11.9 138.985 12.5533 138.985 13.34V20H135.585V14.12C135.585 13.48 135.459 13.0333 135.205 12.78C134.965 12.5267 134.639 12.4 134.225 12.4C133.892 12.4 133.585 12.4867 133.305 12.66C133.039 12.82 132.832 13.0667 132.685 13.4C132.539 13.7333 132.465 14.1533 132.465 14.66V20H129.065V14.12C129.065 13.48 128.939 13.0333 128.685 12.78C128.432 12.5267 128.105 12.4 127.705 12.4C127.399 12.4 127.105 12.48 126.825 12.64C126.559 12.8 126.345 13.0533 126.185 13.4C126.025 13.7333 125.945 14.1733 125.945 14.72V20H122.545ZM145.853 20.2C144.747 20.2 143.787 19.9933 142.973 19.58C142.173 19.1667 141.553 18.5733 141.113 17.8C140.673 17.0267 140.453 16.0933 140.453 15C140.453 13.9067 140.673 12.9733 141.113 12.2C141.553 11.4267 142.167 10.8333 142.953 10.42C143.753 10.0067 144.667 9.8 145.693 9.8C146.747 9.8 147.64 10.0067 148.373 10.42C149.12 10.82 149.687 11.38 150.073 12.1C150.46 12.8067 150.653 13.62 150.653 14.54C150.653 14.78 150.647 15.02 150.633 15.26C150.62 15.5 150.6 15.7 150.573 15.86H142.653V14.04H149.073L147.453 14.66C147.453 13.86 147.307 13.2467 147.013 12.82C146.733 12.3933 146.293 12.18 145.693 12.18C145.267 12.18 144.9 12.28 144.593 12.48C144.3 12.68 144.073 12.9933 143.913 13.42C143.767 13.8467 143.693 14.3933 143.693 15.06C143.693 15.7133 143.78 16.2467 143.953 16.66C144.127 17.06 144.373 17.3533 144.693 17.54C145.013 17.7133 145.4 17.8 145.853 17.8C146.36 17.8 146.76 17.7 147.053 17.5C147.36 17.3 147.587 17.02 147.733 16.66L150.453 17.56C150.267 18.1333 149.94 18.62 149.473 19.02C149.02 19.4067 148.473 19.7 147.833 19.9C147.207 20.1 146.547 20.2 145.853 20.2ZM155.835 20.2C155.009 20.2 154.282 20 153.655 19.6C153.042 19.1867 152.562 18.5933 152.215 17.82C151.882 17.0467 151.715 16.12 151.715 15.04C151.715 13.92 151.889 12.9733 152.235 12.2C152.595 11.4267 153.089 10.8333 153.715 10.42C154.355 10.0067 155.089 9.8 155.915 9.8C156.822 9.8 157.549 10.08 158.095 10.64C158.655 11.1867 159.015 11.8867 159.175 12.74L158.855 13.16V5.76H162.255V20H159.215L158.995 16.6L159.395 16.9C159.315 17.5667 159.109 18.1467 158.775 18.64C158.455 19.1333 158.042 19.52 157.535 19.8C157.042 20.0667 156.475 20.2 155.835 20.2ZM157.015 17.7C157.402 17.7 157.729 17.6 157.995 17.4C158.275 17.1867 158.489 16.8733 158.635 16.46C158.782 16.0467 158.855 15.54 158.855 14.94C158.855 14.38 158.782 13.9067 158.635 13.52C158.502 13.12 158.295 12.82 158.015 12.62C157.749 12.4067 157.422 12.3 157.035 12.3C156.449 12.3 155.982 12.52 155.635 12.96C155.302 13.3867 155.135 14.0667 155.135 15C155.135 15.9333 155.302 16.62 155.635 17.06C155.969 17.4867 156.429 17.7 157.015 17.7ZM165.994 8.84C165.301 8.84 164.794 8.71333 164.474 8.46C164.168 8.19333 164.014 7.78 164.014 7.22C164.014 6.64667 164.168 6.23333 164.474 5.98C164.794 5.71333 165.301 5.58 165.994 5.58C166.674 5.58 167.174 5.71333 167.494 5.98C167.814 6.23333 167.974 6.64667 167.974 7.22C167.974 7.78 167.814 8.19333 167.494 8.46C167.174 8.71333 166.674 8.84 165.994 8.84ZM167.694 10V20H164.294V10H167.694ZM175.295 13.66C175.295 13.1933 175.161 12.8267 174.895 12.56C174.641 12.28 174.295 12.14 173.855 12.14C173.415 12.14 173.035 12.2533 172.715 12.48C172.408 12.6933 172.195 13.08 172.075 13.64L169.195 12.96C169.381 12 169.875 11.2333 170.675 10.66C171.475 10.0867 172.601 9.8 174.055 9.8C175.028 9.8 175.855 9.94667 176.535 10.24C177.228 10.52 177.755 10.9467 178.115 11.52C178.488 12.08 178.675 12.7733 178.675 13.6V17.26C178.675 17.78 178.908 18.04 179.375 18.04C179.615 18.04 179.808 18.0133 179.955 17.96L179.755 19.9C179.355 20.0867 178.868 20.18 178.295 20.18C177.775 20.18 177.315 20.1 176.915 19.94C176.515 19.7667 176.201 19.5133 175.975 19.18C175.748 18.8333 175.635 18.4 175.635 17.88V17.76L176.015 17.62C176.015 18.1933 175.841 18.6733 175.495 19.06C175.161 19.4467 174.721 19.7333 174.175 19.92C173.641 20.1067 173.081 20.2 172.495 20.2C171.815 20.2 171.221 20.0933 170.715 19.88C170.208 19.6667 169.815 19.36 169.535 18.96C169.268 18.5467 169.135 18.04 169.135 17.44C169.135 16.72 169.348 16.1267 169.775 15.66C170.215 15.18 170.901 14.8467 171.835 14.66L175.615 13.88L175.595 15.68L173.675 16.08C173.275 16.16 172.975 16.28 172.775 16.44C172.588 16.5867 172.495 16.8133 172.495 17.12C172.495 17.4133 172.601 17.6333 172.815 17.78C173.028 17.9267 173.281 18 173.575 18C173.801 18 174.015 17.9667 174.215 17.9C174.428 17.8333 174.615 17.7333 174.775 17.6C174.935 17.4533 175.061 17.2733 175.155 17.06C175.248 16.8467 175.295 16.5933 175.295 16.3V13.66Z" fill="#2A4496"/>
<ellipse cx="14.6126" cy="14" rx="13.6155" ry="14" fill="#2A4496"/>
<path d="M13.57 20V12.4C13.57 12.0533 13.57 11.7 13.57 11.34C13.5833 10.9667 13.59 10.5867 13.59 10.2C13.15 10.6 12.6633 10.9533 12.13 11.26C11.5967 11.5533 11.0367 11.7533 10.45 11.86L10.13 9.02C10.4767 8.99333 10.8433 8.90667 11.23 8.76C11.63 8.61333 12.0233 8.43333 12.41 8.22C12.7967 8.00667 13.1433 7.78 13.45 7.54C13.7567 7.28667 13.99 7.04 14.15 6.8H16.89V20H13.57Z" fill="white"/>
</svg>
