<svg width="311" height="35" viewBox="0 0 311 35" fill="none" xmlns="http://www.w3.org/2000/svg">
<ellipse cx="296.612" cy="14" rx="13.6155" ry="14" fill="#B5B5B5"/>
<circle cx="296.997" cy="14" r="9.5" stroke="white" stroke-linecap="round"/>
<path d="M300.997 10L292.997 13" stroke="white" stroke-linecap="round"/>
<path d="M292.997 10L300.997 13" stroke="white" stroke-linecap="round"/>
<path d="M292.997 16.5556C292.997 16.504 292.997 16.4782 292.998 16.4564C293.02 16.2147 293.211 16.0231 293.453 16.0019C293.475 16 293.501 16 293.552 16H300.441C300.493 16 300.518 16 300.54 16.0019C300.782 16.0231 300.974 16.2147 300.995 16.4564C300.997 16.4782 300.997 16.504 300.997 16.5556V17C300.997 19.2091 299.206 21 296.997 21C294.787 21 292.997 19.2091 292.997 17V16.5556Z" fill="white"/>
<ellipse cx="260.613" cy="14" rx="13.6155" ry="14" fill="#B5B5B5"/>
<path d="M255.197 20V17.8C256.33 17.0933 257.297 16.4333 258.097 15.82C258.897 15.2067 259.544 14.6267 260.037 14.08C260.544 13.5333 260.917 13.0133 261.157 12.52C261.397 12.0267 261.517 11.5467 261.517 11.08C261.517 10.5733 261.364 10.1533 261.057 9.82C260.764 9.47333 260.324 9.3 259.737 9.3C259.11 9.3 258.624 9.53333 258.277 10C257.93 10.4533 257.744 11.12 257.717 12L254.777 11.1C254.804 10.1133 255.037 9.28667 255.477 8.62C255.93 7.95333 256.544 7.45333 257.317 7.12C258.09 6.77333 258.97 6.6 259.957 6.6C260.824 6.6 261.57 6.72667 262.197 6.98C262.837 7.22 263.357 7.54667 263.757 7.96C264.157 8.36 264.45 8.81333 264.637 9.32C264.837 9.81333 264.937 10.32 264.937 10.84C264.937 11.6933 264.717 12.4933 264.277 13.24C263.837 13.9733 263.197 14.6867 262.357 15.38C261.53 16.06 260.524 16.7467 259.337 17.44V17.46C259.564 17.4467 259.83 17.4333 260.137 17.42C260.444 17.4067 260.764 17.4 261.097 17.4C261.43 17.3867 261.73 17.38 261.997 17.38H265.097V20H255.197Z" fill="white"/>
<path d="M235 14.6704L221 14.6704" stroke="#B5B5B5" stroke-width="2" stroke-linecap="round" stroke-linejoin="round"/>
<path d="M239.816 14.4911L236.358 11.1281C235.851 10.6349 235 10.9942 235 11.7016L235 17.639C235 18.3464 235.851 18.7057 236.358 18.2125L239.816 14.8495C239.917 14.7514 239.917 14.5892 239.816 14.4911Z" fill="#B5B5B5"/>
<path d="M42.0956 6.8C44.1623 6.8 45.7423 7.37333 46.8356 8.52C47.9423 9.66667 48.4956 11.2933 48.4956 13.4C48.4956 15.5067 47.9423 17.1333 46.8356 18.28C45.7423 19.4267 44.1623 20 42.0956 20H36.4956V6.8H42.0956ZM41.7556 17.4C42.8756 17.4 43.689 17.0667 44.1956 16.4C44.7156 15.72 44.9756 14.72 44.9756 13.4C44.9756 12.08 44.7156 11.0867 44.1956 10.42C43.689 9.74 42.8756 9.4 41.7556 9.4H39.9356V17.4H41.7556ZM55.6739 13.66C55.6739 13.1933 55.5406 12.8267 55.2739 12.56C55.0206 12.28 54.6739 12.14 54.2339 12.14C53.7939 12.14 53.4139 12.2533 53.0939 12.48C52.7873 12.6933 52.5739 13.08 52.4539 13.64L49.5739 12.96C49.7606 12 50.2539 11.2333 51.0539 10.66C51.8539 10.0867 52.9806 9.8 54.4339 9.8C55.4073 9.8 56.2339 9.94667 56.9139 10.24C57.6073 10.52 58.1339 10.9467 58.4939 11.52C58.8673 12.08 59.0539 12.7733 59.0539 13.6V17.26C59.0539 17.78 59.2873 18.04 59.7539 18.04C59.9939 18.04 60.1873 18.0133 60.3339 17.96L60.1339 19.9C59.7339 20.0867 59.2473 20.18 58.6739 20.18C58.1539 20.18 57.6939 20.1 57.2939 19.94C56.8939 19.7667 56.5806 19.5133 56.3539 19.18C56.1273 18.8333 56.0139 18.4 56.0139 17.88V17.76L56.3939 17.62C56.3939 18.1933 56.2206 18.6733 55.8739 19.06C55.5406 19.4467 55.1006 19.7333 54.5539 19.92C54.0206 20.1067 53.4606 20.2 52.8739 20.2C52.1939 20.2 51.6006 20.0933 51.0939 19.88C50.5873 19.6667 50.1939 19.36 49.9139 18.96C49.6473 18.5467 49.5139 18.04 49.5139 17.44C49.5139 16.72 49.7273 16.1267 50.1539 15.66C50.5939 15.18 51.2806 14.8467 52.2139 14.66L55.9939 13.88L55.9739 15.68L54.0539 16.08C53.6539 16.16 53.3539 16.28 53.1539 16.44C52.9673 16.5867 52.8739 16.8133 52.8739 17.12C52.8739 17.4133 52.9806 17.6333 53.1939 17.78C53.4073 17.9267 53.6606 18 53.9539 18C54.1806 18 54.3939 17.9667 54.5939 17.9C54.8073 17.8333 54.9939 17.7333 55.1539 17.6C55.3139 17.4533 55.4406 17.2733 55.5339 17.06C55.6273 16.8467 55.6739 16.5933 55.6739 16.3V13.66ZM65.0653 6.82V16.44C65.0653 16.92 65.1787 17.2667 65.4053 17.48C65.6453 17.68 65.972 17.78 66.3853 17.78C66.7053 17.78 66.9787 17.7467 67.2053 17.68C67.4453 17.6 67.6587 17.4867 67.8453 17.34L68.2053 19.44C67.872 19.68 67.452 19.8667 66.9453 20C66.4387 20.1333 65.9187 20.2 65.3853 20.2C64.6253 20.2 63.9653 20.0933 63.4053 19.88C62.8587 19.6667 62.432 19.3267 62.1253 18.86C61.832 18.3933 61.6787 17.7733 61.6653 17V7.76L65.0653 6.82ZM68.0453 10V12.42H59.9453V10H68.0453ZM73.9758 9.8C75.0291 9.8 75.9491 10.0067 76.7358 10.42C77.5358 10.82 78.1558 11.4133 78.5958 12.2C79.0491 12.9733 79.2758 13.9067 79.2758 15C79.2758 16.0933 79.0491 17.0333 78.5958 17.82C78.1558 18.5933 77.5358 19.1867 76.7358 19.6C75.9491 20 75.0291 20.2 73.9758 20.2C72.9491 20.2 72.0358 20 71.2358 19.6C70.4358 19.1867 69.8091 18.5933 69.3558 17.82C68.9158 17.0333 68.6958 16.0933 68.6958 15C68.6958 13.9067 68.9158 12.9733 69.3558 12.2C69.8091 11.4133 70.4358 10.82 71.2358 10.42C72.0358 10.0067 72.9491 9.8 73.9758 9.8ZM73.9758 12.22C73.5891 12.22 73.2558 12.3133 72.9758 12.5C72.6958 12.6867 72.4825 12.9867 72.3358 13.4C72.1891 13.8133 72.1158 14.3467 72.1158 15C72.1158 15.6533 72.1891 16.1867 72.3358 16.6C72.4825 17 72.6958 17.3 72.9758 17.5C73.2558 17.6867 73.5891 17.78 73.9758 17.78C74.3758 17.78 74.7158 17.6867 74.9958 17.5C75.2758 17.3 75.4891 17 75.6358 16.6C75.7825 16.1867 75.8558 15.6533 75.8558 15C75.8558 14.3467 75.7825 13.8133 75.6358 13.4C75.4891 12.9867 75.2758 12.6867 74.9958 12.5C74.7158 12.3133 74.3758 12.22 73.9758 12.22ZM84.9885 20.2C83.9885 20.2 83.0551 20.04 82.1885 19.72C81.3351 19.3867 80.6285 18.9133 80.0685 18.3L81.6685 16.42C82.0018 16.8467 82.4418 17.2067 82.9885 17.5C83.5485 17.78 84.1685 17.92 84.8485 17.92C85.2618 17.92 85.6018 17.86 85.8685 17.74C86.1351 17.62 86.2685 17.4333 86.2685 17.18C86.2685 16.9933 86.2018 16.8467 86.0685 16.74C85.9351 16.62 85.6685 16.52 85.2685 16.44L83.8685 16.16C82.6151 15.9067 81.7218 15.5333 81.1885 15.04C80.6685 14.5333 80.4085 13.8733 80.4085 13.06C80.4085 12.5133 80.5751 11.9933 80.9085 11.5C81.2418 10.9933 81.7551 10.5867 82.4485 10.28C83.1418 9.96 84.0285 9.8 85.1085 9.8C86.1218 9.8 87.0151 9.94667 87.7885 10.24C88.5618 10.5333 89.1751 10.96 89.6285 11.52L88.0085 13.36C87.6885 12.96 87.2751 12.6467 86.7685 12.42C86.2618 12.1933 85.7551 12.08 85.2485 12.08C84.9285 12.08 84.6551 12.1133 84.4285 12.18C84.2151 12.2333 84.0551 12.3133 83.9485 12.42C83.8418 12.5267 83.7885 12.66 83.7885 12.82C83.7885 12.9933 83.8685 13.1467 84.0285 13.28C84.2018 13.4 84.5151 13.5067 84.9685 13.6L86.7885 13.96C87.8151 14.1467 88.5551 14.4867 89.0085 14.98C89.4618 15.4733 89.6885 16.0667 89.6885 16.76C89.6885 17.4133 89.5151 18 89.1685 18.52C88.8218 19.04 88.3018 19.4533 87.6085 19.76C86.9151 20.0533 86.0418 20.2 84.9885 20.2ZM96.3752 24.2V10H99.4352L99.6152 13.62L99.2152 13.2C99.3085 12.5333 99.5152 11.9467 99.8352 11.44C100.155 10.9333 100.569 10.5333 101.075 10.24C101.582 9.94667 102.162 9.8 102.815 9.8C103.642 9.8 104.362 10.0067 104.975 10.42C105.589 10.82 106.062 11.4067 106.395 12.18C106.742 12.94 106.915 13.8667 106.915 14.96C106.915 16.0533 106.742 16.9933 106.395 17.78C106.049 18.5667 105.562 19.1667 104.935 19.58C104.322 19.9933 103.602 20.2 102.775 20.2C101.869 20.2 101.135 19.9333 100.575 19.4C100.015 18.8533 99.6418 18.1667 99.4552 17.34L99.7752 16.86V24.2H96.3752ZM101.615 17.7C102.202 17.7 102.662 17.4867 102.995 17.06C103.329 16.62 103.495 15.9333 103.495 15C103.495 14.0667 103.329 13.3867 102.995 12.96C102.675 12.52 102.222 12.3 101.635 12.3C101.262 12.3 100.935 12.4067 100.655 12.62C100.375 12.82 100.155 13.12 99.9952 13.52C99.8485 13.92 99.7752 14.4133 99.7752 15C99.7752 15.56 99.8418 16.0467 99.9752 16.46C100.122 16.86 100.335 17.1667 100.615 17.38C100.895 17.5933 101.229 17.7 101.615 17.7ZM108.514 20V10H111.514L111.654 12.16C111.908 11.4133 112.281 10.8333 112.774 10.42C113.281 10.0067 113.921 9.8 114.694 9.8C114.948 9.8 115.161 9.82 115.334 9.86C115.521 9.9 115.668 9.95333 115.774 10.02L115.434 12.82C115.301 12.7667 115.128 12.7267 114.914 12.7C114.714 12.66 114.468 12.64 114.174 12.64C113.774 12.64 113.401 12.7267 113.054 12.9C112.708 13.0733 112.428 13.3333 112.214 13.68C112.014 14.0133 111.914 14.44 111.914 14.96V20H108.514ZM118.408 8.84C117.715 8.84 117.208 8.71333 116.888 8.46C116.581 8.19333 116.428 7.78 116.428 7.22C116.428 6.64667 116.581 6.23333 116.888 5.98C117.208 5.71333 117.715 5.58 118.408 5.58C119.088 5.58 119.588 5.71333 119.908 5.98C120.228 6.23333 120.388 6.64667 120.388 7.22C120.388 7.78 120.228 8.19333 119.908 8.46C119.588 8.71333 119.088 8.84 118.408 8.84ZM120.108 10V20H116.708V10H120.108ZM122.128 20V10H125.168L125.348 13.44L124.968 13.06C125.102 12.34 125.335 11.74 125.668 11.26C126.015 10.78 126.442 10.42 126.948 10.18C127.468 9.92667 128.048 9.8 128.688 9.8C129.382 9.8 129.982 9.93333 130.488 10.2C131.008 10.4667 131.415 10.86 131.708 11.38C132.002 11.9 132.148 12.5533 132.148 13.34V20H128.748V14.24C128.748 13.5467 128.615 13.0667 128.348 12.8C128.082 12.5333 127.742 12.4 127.328 12.4C127.008 12.4 126.708 12.48 126.428 12.64C126.148 12.7867 125.928 13.0267 125.768 13.36C125.608 13.6933 125.528 14.14 125.528 14.7V20H122.128ZM138.871 9.8C139.884 9.8 140.724 9.94667 141.391 10.24C142.071 10.52 142.597 10.9 142.971 11.38C143.357 11.8467 143.597 12.3533 143.691 12.9L140.551 13.94C140.457 13.3667 140.284 12.94 140.031 12.66C139.791 12.3667 139.437 12.22 138.971 12.22C138.544 12.22 138.184 12.32 137.891 12.52C137.611 12.7067 137.397 13.0133 137.251 13.44C137.104 13.8533 137.031 14.3867 137.031 15.04C137.031 15.6933 137.111 16.2267 137.271 16.64C137.431 17.04 137.657 17.3333 137.951 17.52C138.244 17.6933 138.591 17.78 138.991 17.78C139.324 17.78 139.597 17.72 139.811 17.6C140.037 17.4667 140.224 17.28 140.371 17.04C140.517 16.8 140.611 16.5067 140.651 16.16L143.711 17.14C143.617 17.7267 143.364 18.2533 142.951 18.72C142.551 19.1733 142.017 19.5333 141.351 19.8C140.684 20.0667 139.904 20.2 139.011 20.2C137.917 20.2 136.964 20 136.151 19.6C135.337 19.1867 134.711 18.5933 134.271 17.82C133.831 17.0333 133.611 16.0933 133.611 15C133.611 13.9067 133.831 12.9733 134.271 12.2C134.711 11.4133 135.324 10.82 136.111 10.42C136.911 10.0067 137.831 9.8 138.871 9.8ZM146.778 8.84C146.085 8.84 145.578 8.71333 145.258 8.46C144.952 8.19333 144.798 7.78 144.798 7.22C144.798 6.64667 144.952 6.23333 145.258 5.98C145.578 5.71333 146.085 5.58 146.778 5.58C147.458 5.58 147.958 5.71333 148.278 5.98C148.598 6.23333 148.758 6.64667 148.758 7.22C148.758 7.78 148.598 8.19333 148.278 8.46C147.958 8.71333 147.458 8.84 146.778 8.84ZM148.478 10V20H145.078V10H148.478ZM150.499 24.2V10H153.559L153.739 13.62L153.339 13.2C153.432 12.5333 153.639 11.9467 153.959 11.44C154.279 10.9333 154.692 10.5333 155.199 10.24C155.705 9.94667 156.285 9.8 156.939 9.8C157.765 9.8 158.485 10.0067 159.099 10.42C159.712 10.82 160.185 11.4067 160.519 12.18C160.865 12.94 161.039 13.8667 161.039 14.96C161.039 16.0533 160.865 16.9933 160.519 17.78C160.172 18.5667 159.685 19.1667 159.059 19.58C158.445 19.9933 157.725 20.2 156.899 20.2C155.992 20.2 155.259 19.9333 154.699 19.4C154.139 18.8533 153.765 18.1667 153.579 17.34L153.899 16.86V24.2H150.499ZM155.739 17.7C156.325 17.7 156.785 17.4867 157.119 17.06C157.452 16.62 157.619 15.9333 157.619 15C157.619 14.0667 157.452 13.3867 157.119 12.96C156.799 12.52 156.345 12.3 155.759 12.3C155.385 12.3 155.059 12.4067 154.779 12.62C154.499 12.82 154.279 13.12 154.119 13.52C153.972 13.92 153.899 14.4133 153.899 15C153.899 15.56 153.965 16.0467 154.099 16.46C154.245 16.86 154.459 17.1667 154.739 17.38C155.019 17.5933 155.352 17.7 155.739 17.7ZM168.12 13.66C168.12 13.1933 167.987 12.8267 167.72 12.56C167.467 12.28 167.12 12.14 166.68 12.14C166.24 12.14 165.86 12.2533 165.54 12.48C165.233 12.6933 165.02 13.08 164.9 13.64L162.02 12.96C162.207 12 162.7 11.2333 163.5 10.66C164.3 10.0867 165.427 9.8 166.88 9.8C167.853 9.8 168.68 9.94667 169.36 10.24C170.053 10.52 170.58 10.9467 170.94 11.52C171.313 12.08 171.5 12.7733 171.5 13.6V17.26C171.5 17.78 171.733 18.04 172.2 18.04C172.44 18.04 172.633 18.0133 172.78 17.96L172.58 19.9C172.18 20.0867 171.693 20.18 171.12 20.18C170.6 20.18 170.14 20.1 169.74 19.94C169.34 19.7667 169.027 19.5133 168.8 19.18C168.573 18.8333 168.46 18.4 168.46 17.88V17.76L168.84 17.62C168.84 18.1933 168.667 18.6733 168.32 19.06C167.987 19.4467 167.547 19.7333 167 19.92C166.467 20.1067 165.907 20.2 165.32 20.2C164.64 20.2 164.047 20.0933 163.54 19.88C163.033 19.6667 162.64 19.36 162.36 18.96C162.093 18.5467 161.96 18.04 161.96 17.44C161.96 16.72 162.173 16.1267 162.6 15.66C163.04 15.18 163.727 14.8467 164.66 14.66L168.44 13.88L168.42 15.68L166.5 16.08C166.1 16.16 165.8 16.28 165.6 16.44C165.413 16.5867 165.32 16.8133 165.32 17.12C165.32 17.4133 165.427 17.6333 165.64 17.78C165.853 17.9267 166.107 18 166.4 18C166.627 18 166.84 17.9667 167.04 17.9C167.253 17.8333 167.44 17.7333 167.6 17.6C167.76 17.4533 167.887 17.2733 167.98 17.06C168.073 16.8467 168.12 16.5933 168.12 16.3V13.66ZM177.082 5.76V16.6C177.082 17.04 177.155 17.3533 177.302 17.54C177.449 17.7267 177.695 17.82 178.042 17.82C178.242 17.82 178.409 17.8067 178.542 17.78C178.675 17.7533 178.835 17.7133 179.022 17.66L178.802 19.7C178.562 19.8467 178.249 19.9667 177.862 20.06C177.475 20.1533 177.095 20.2 176.722 20.2C175.655 20.2 174.882 19.9533 174.402 19.46C173.922 18.9667 173.682 18.16 173.682 17.04V5.76H177.082ZM184.745 20.2C183.638 20.2 182.678 19.9933 181.865 19.58C181.065 19.1667 180.445 18.5733 180.005 17.8C179.565 17.0267 179.345 16.0933 179.345 15C179.345 13.9067 179.565 12.9733 180.005 12.2C180.445 11.4267 181.058 10.8333 181.845 10.42C182.645 10.0067 183.558 9.8 184.585 9.8C185.638 9.8 186.532 10.0067 187.265 10.42C188.012 10.82 188.578 11.38 188.965 12.1C189.352 12.8067 189.545 13.62 189.545 14.54C189.545 14.78 189.538 15.02 189.525 15.26C189.512 15.5 189.492 15.7 189.465 15.86H181.545V14.04H187.965L186.345 14.66C186.345 13.86 186.198 13.2467 185.905 12.82C185.625 12.3933 185.185 12.18 184.585 12.18C184.158 12.18 183.792 12.28 183.485 12.48C183.192 12.68 182.965 12.9933 182.805 13.42C182.658 13.8467 182.585 14.3933 182.585 15.06C182.585 15.7133 182.672 16.2467 182.845 16.66C183.018 17.06 183.265 17.3533 183.585 17.54C183.905 17.7133 184.292 17.8 184.745 17.8C185.252 17.8 185.652 17.7 185.945 17.5C186.252 17.3 186.478 17.02 186.625 16.66L189.345 17.56C189.158 18.1333 188.832 18.62 188.365 19.02C187.912 19.4067 187.365 19.7 186.725 19.9C186.098 20.1 185.438 20.2 184.745 20.2ZM195.247 20.2C194.247 20.2 193.314 20.04 192.447 19.72C191.594 19.3867 190.887 18.9133 190.327 18.3L191.927 16.42C192.26 16.8467 192.7 17.2067 193.247 17.5C193.807 17.78 194.427 17.92 195.107 17.92C195.52 17.92 195.86 17.86 196.127 17.74C196.394 17.62 196.527 17.4333 196.527 17.18C196.527 16.9933 196.46 16.8467 196.327 16.74C196.194 16.62 195.927 16.52 195.527 16.44L194.127 16.16C192.874 15.9067 191.98 15.5333 191.447 15.04C190.927 14.5333 190.667 13.8733 190.667 13.06C190.667 12.5133 190.834 11.9933 191.167 11.5C191.5 10.9933 192.014 10.5867 192.707 10.28C193.4 9.96 194.287 9.8 195.367 9.8C196.38 9.8 197.274 9.94667 198.047 10.24C198.82 10.5333 199.434 10.96 199.887 11.52L198.267 13.36C197.947 12.96 197.534 12.6467 197.027 12.42C196.52 12.1933 196.014 12.08 195.507 12.08C195.187 12.08 194.914 12.1133 194.687 12.18C194.474 12.2333 194.314 12.3133 194.207 12.42C194.1 12.5267 194.047 12.66 194.047 12.82C194.047 12.9933 194.127 13.1467 194.287 13.28C194.46 13.4 194.774 13.5067 195.227 13.6L197.047 13.96C198.074 14.1467 198.814 14.4867 199.267 14.98C199.72 15.4733 199.947 16.0667 199.947 16.76C199.947 17.4133 199.774 18 199.427 18.52C199.08 19.04 198.56 19.4533 197.867 19.76C197.174 20.0533 196.3 20.2 195.247 20.2Z" fill="#2A4496"/>
<ellipse cx="14.6126" cy="14" rx="13.6155" ry="14" fill="#2A4496"/>
<path d="M13.57 20V12.4C13.57 12.0533 13.57 11.7 13.57 11.34C13.5833 10.9667 13.59 10.5867 13.59 10.2C13.15 10.6 12.6633 10.9533 12.13 11.26C11.5967 11.5533 11.0367 11.7533 10.45 11.86L10.13 9.02C10.4767 8.99333 10.8433 8.90667 11.23 8.76C11.63 8.61333 12.0233 8.43333 12.41 8.22C12.7967 8.00667 13.1433 7.78 13.45 7.54C13.7567 7.28667 13.99 7.04 14.15 6.8H16.89V20H13.57Z" fill="white"/>
</svg>
