<svg width="27" height="27" viewBox="0 0 27 27" fill="none" xmlns="http://www.w3.org/2000/svg">
<path d="M20.375 12.375C20.375 14.8593 19.0971 16.8968 17.5299 18.4621C16.0035 19.9866 14.2854 20.9768 13.5 21.3852C12.7146 20.9768 10.9965 19.9866 9.47011 18.4621C7.90289 16.8968 6.625 14.8593 6.625 12.375C6.625 8.57804 9.70304 5.5 13.5 5.5C17.297 5.5 20.375 8.57804 20.375 12.375Z" fill="white" stroke="#2A4496" stroke-width="2"/>
<path d="M15.875 12.375C15.875 13.6867 14.8117 14.75 13.5 14.75C12.1883 14.75 11.125 13.6867 11.125 12.375C11.125 11.0633 12.1883 10 13.5 10C14.8117 10 15.875 11.0633 15.875 12.375Z" fill="white" stroke="#2A4496" stroke-width="2"/>
</svg>
