<svg width="16" height="16" viewBox="0 0 16 16" fill="none" xmlns="http://www.w3.org/2000/svg">
<path fill-rule="evenodd" clip-rule="evenodd" d="M8 16C12.4183 16 16 12.4183 16 8C16 3.58172 12.4183 0 8 0C3.58172 0 0 3.58172 0 8C0 12.4183 3.58172 16 8 16ZM12.3239 5.97352C12.6774 5.54924 12.6201 4.91868 12.1958 4.56511C11.7716 4.21155 11.141 4.26887 10.7874 4.69315L7.74504 8.34403C7.39833 8.76009 7.20341 8.99043 7.0478 9.13198L7.04185 9.13736L7.03544 9.13254C6.86765 9.00566 6.65268 8.79391 6.26972 8.41095L5.15166 7.29289C4.76114 6.90237 4.12797 6.90237 3.73745 7.29289C3.34692 7.68342 3.34692 8.31658 3.73745 8.70711L4.8555 9.82516L4.89633 9.866C5.22283 10.1926 5.53692 10.5068 5.82916 10.7278C6.15652 10.9754 6.58524 11.2081 7.13465 11.1832C7.68406 11.1583 8.08994 10.8876 8.39355 10.6115C8.66459 10.365 8.94894 10.0236 9.24452 9.66876L9.28149 9.6244L12.3239 5.97352Z" fill="#E3AA16"/>
</svg>
